<?xml version="1.0" standalone="yes"?>
<svg xmlns="http://www.w3.org/2000/svg" width="312" height="236">
<path style="fill:#010101; stroke:none;" d="M0 0L0 236L312 236L312 0L0 0z"/>
<path style="fill:#e0d4c7; stroke:none;" d="M130 27C128.98 34.144 130.463 40.3741 135 46C129.283 44.6389 117.175 42.8978 112.603 47.7029C102.737 58.0729 124.345 62 130 62C127.391 76.1055 136.357 83.4508 139.262 96C140.847 102.848 136.354 110.041 143.109 115.351C157.144 126.386 181.56 118.187 178 99L177 99C177.319 103.079 178.475 107.232 176.141 110.957C170.174 120.482 150.472 120.803 143.228 112.892C137.94 107.116 142.325 102.377 141.167 96C140.2 90.6772 135.495 86.0136 133.454 81C130.552 73.8712 130.851 67.4837 131 60C125.574 61.2917 105.347 57.2733 114.333 48.5139C120.088 42.9047 131.319 47.0178 138 48C133.962 40.6092 131.006 36.8103 131 28C137.046 31.3008 139.731 38.0772 147.91 36.848C152.133 36.2134 154.501 31.7053 158.999 31.8773C169.808 32.2907 176.13 43.1281 184 28L186 28C187.911 36.3221 183.162 40.8604 180 48C186.717 47.0125 197.74 42.9803 203.523 48.7029C212.707 57.7912 190.86 60.9023 186 60C188.985 76.0805 178.769 83.6784 176 98L177 98C182.008 84.7687 188 76.791 188 62C193.678 62 213.58 58.6096 205.393 48.3943C200.869 42.7503 189.036 44.4551 183 46C185.103 43.0113 191.672 31.1125 186.4 28.1759C182.613 26.0662 176.241 36.0743 171 35.4946C166.145 34.9576 163.311 29.8757 158.001 30.3187C152.651 30.7649 149.71 36.8157 143.999 35.4082C138.271 33.9964 135.912 27.9531 130 27z"/>
<path style="fill:#ea922c; stroke:none;" d="M131 28C131.001 36.6666 132.54 41.2435 138 48C131.855 46.5953 118.639 42.8101 113.607 48.5139C105.154 58.0956 125.321 61.6786 131 60C130.663 67.8607 130.396 74.4886 133.454 82C135.378 86.7268 139.603 91.0324 140.681 96C142.263 103.296 137.244 109.791 145.044 115.297C152.528 120.58 172.052 119.952 176.682 110.957C179.408 105.661 175.57 100.304 177.256 95C181.339 82.1593 189.49 74.6585 186 60C191.164 61.2295 212.965 58.5164 204.242 48.7029C199.084 42.8992 186.255 46.5702 180 48C184.194 41.5717 188.328 35.9496 186 28L184 28C180.554 32.5095 175.587 38.6664 169.09 36.4082C165.08 35.0147 162.721 31.1585 158.001 31.5293C154.134 31.8331 152.207 35.1363 148.83 36.3974C142.368 38.8112 136.879 32.9365 134 28L131 28z"/>
<path style="fill:#e0d4c7; stroke:none;" d="M147 47C150.46 44.9088 155.027 37.2065 158.946 37.2068C162.317 37.207 164.904 42.7665 167.093 44.787C174.758 51.8609 181.06 54.5022 182 66C186.303 54.9708 174.502 49.5949 168.184 43.6713C165.43 41.0883 163.248 35.8542 159.001 35.5463C154.021 35.1853 149.429 43.5072 147 47z"/>
<path style="fill:#010101; stroke:none;" d="M144 91C147.776 88.9677 150.323 84.4178 147.968 80.1289C144.207 73.2768 137.613 72.5466 139.329 63.0008C142.443 45.6781 175.187 47.424 178.177 64C180.256 75.5297 161.363 81.2455 173 92C180.246 81.0126 187.364 65.338 178.348 53.0432C175.882 49.6808 172.164 48.162 169.015 45.6103C166.224 43.3498 162.88 36.6358 158.946 36.6358C154.88 36.6358 151.777 42.9367 148.91 45.2392C145.63 47.8732 141.415 49.5107 139.005 53.1042C130.834 65.2901 136.863 80.1783 144 91z"/>
<path style="fill:#e0d4c7; stroke:none;" d="M136 38C138.016 43.606 141.837 44.4382 147 42L147 41L136 38M171 41C175.405 45.4763 179.368 42.9095 182 38L171 41z"/>
<path style="fill:#010101; stroke:none;" d="M138 40L144 43L144 42L138 40M173 42L173 43L179 42L173 42z"/>
<path style="fill:#e0d4c7; stroke:none;" d="M43 47L43 48L47 47L43 47M90 47L90 48L96 48L90 47z"/>
<path style="fill:#010101; stroke:none;" d="M135 46L136 47L135 46M181 46L182 47L181 46z"/>
<path style="fill:#164a80; stroke:none;" d="M44 47C44.0049 54.398 44.9519 59.3368 50 65C44.5292 63.2658 33.1519 60.3629 28.6073 65.5139C20.7461 74.4239 38.9636 77.5948 44 77C43.2366 90.0995 49.5957 96.3134 52.5895 108C53.8863 113.062 50.3812 118.034 53.7423 122.892C59.5057 131.222 76.6852 130.765 83.6057 124.362C88.9037 119.46 84.8501 113.836 86.2832 108C89.0899 96.5703 95 89.6067 95 77C100.041 77.8935 115.844 75.0499 110.928 66.3943C107.364 60.1184 94.2009 63.1045 89 65C92.8782 59.2978 96.0262 54.0523 94 47L80.1698 54.9244L69.0039 50.3225L55.9606 54.5864L44 47z"/>
<path style="fill:#93a8bd; stroke:none;" d="M47 47L48 48L47 47M91 47L92 48L91 47M94 47L95 48L94 47z"/>
<path style="fill:#e0d4c7; stroke:none;" d="M145 47L146 48L145 47z"/>
<path style="fill:#93a8bd; stroke:none;" d="M43 48L43 54L44 54L43 48z"/>
<path style="fill:#e0d4c7; stroke:none;" d="M48 48L50 50L48 48z"/>
<path style="fill:#93a8bd; stroke:none;" d="M90 48L91 49L90 48M95 48L95 53L96 53L95 48z"/>
<path style="fill:#e0d4c7; stroke:none;" d="M143.667 48.3333L144.333 48.6667L143.667 48.3333z"/>
<path style="fill:#93a8bd; stroke:none;" d="M48 49L49 50L48 49z"/>
<path style="fill:#e0d4c7; stroke:none;" d="M66 49L66 50L73 50L66 49M89 49L86 53L89 49M122 49L122 50L128 50L122 49M141.667 49.3333L142.333 49.6667L141.667 49.3333M202 51L201 51C195.935 56.962 191.88 56.6451 185 54L185 52L195 50C192.416 48.9462 183.296 48.7409 184.89 53.7801C187.575 62.2626 199.651 55.8873 202 51z"/>
<path style="fill:#93a8bd; stroke:none;" d="M49 50L50 51L49 50z"/>
<path style="fill:#e0d4c7; stroke:none;" d="M64 50L65 51L64 50z"/>
<path style="fill:#93a8bd; stroke:none;" d="M65.6667 50.3333L66.3333 50.6667L65.6667 50.3333M72 50L72 51L79 56L72 50z"/>
<path style="fill:#e0d4c7; stroke:none;" d="M74 50L75 51L74 50z"/>
<path style="fill:#93a8bd; stroke:none;" d="M89 50L90 51L89 50z"/>
<path style="fill:#e0d4c7; stroke:none;" d="M134 51L133 51C128.877 57.886 121.483 56.9194 117 51L121 51C118.457 50.1656 115.37 51.567 117.662 54.625C122.39 60.9319 131.786 57.1605 134 51z"/>
<path style="fill:#010101; stroke:none;" d="M117 51C120.326 57.6523 130.074 58.4587 133 51L117 51z"/>
<path style="fill:#e0d4c7; stroke:none;" d="M129 50L129 51L132 51L129 50M140 50L141 51L140 50z"/>
<path style="fill:#010101; stroke:none;" d="M185 52L185 54C191.247 57.2738 197.124 57.7006 201 51L185 52z"/>
<path style="fill:#e0d4c7; stroke:none;" d="M197 50L197 51L200 51L197 50z"/>
<path style="fill:#93a8bd; stroke:none;" d="M50 51L51 52L50 51M63.6667 51.3333L64.3333 51.6667L63.6667 51.3333z"/>
<path style="fill:#e0d4c7; stroke:none;" d="M75 51L76 52L75 51z"/>
<path style="fill:#93a8bd; stroke:none;" d="M88 51L89 52L88 51z"/>
<path style="fill:#e0d4c7; stroke:none;" d="M139 51L140 52L139 51M143 55L143 56L168 53C160.645 48.5941 150.088 51.2653 143 55z"/>
<path style="fill:#93a8bd; stroke:none;" d="M51 52L53 54L51 52z"/>
<path style="fill:#e0d4c7; stroke:none;" d="M52 52L53 53L52 52M62 52L57 54L57 55L62 52M76 52L77 53L76 52z"/>
<path style="fill:#93a8bd; stroke:none;" d="M87 52L88 53L87 52z"/>
<path style="fill:#e0d4c7; stroke:none;" d="M138.333 52.6667L138.667 53.3333L138.333 52.6667M53.6667 53.3333L54.3333 53.6667L53.6667 53.3333z"/>
<path style="fill:#93a8bd; stroke:none;" d="M62 53L63 54L62 53z"/>
<path style="fill:#e0d4c7; stroke:none;" d="M77 53L78 54L77 53M84 53L85 54L84 53z"/>
<path style="fill:#93a8bd; stroke:none;" d="M85.6667 53.3333L86.3333 53.6667L85.6667 53.3333z"/>
<path style="fill:#e0d4c7; stroke:none;" d="M95 53L95 56L96 56L95 53M168 53L168 54L171 54L168 53M43.3333 54.6667L43.6667 55.3333L43.3333 54.6667z"/>
<path style="fill:#93a8bd; stroke:none;" d="M54 54L54 55L57 55L54 54M61 54L62 55L61 54M64 59L65 59C67.6151 56.1229 69.1391 55.3625 73 56C69.0457 53.0677 66.1941 55.0899 64 59z"/>
<path style="fill:#e0d4c7; stroke:none;" d="M78 54L78 55L81 55L78 54z"/>
<path style="fill:#93a8bd; stroke:none;" d="M81 54L81 55L85 55L81 54M94 54L94 57L95 57L94 54z"/>
<path style="fill:#e0d4c7; stroke:none;" d="M137.333 54.6667L137.667 55.3333L137.333 54.6667M171.667 54.3333L172.333 54.6667L171.667 54.3333z"/>
<path style="fill:#93a8bd; stroke:none;" d="M60 55L61 56L60 55z"/>
<path style="fill:#e0d4c7; stroke:none;" d="M67 55L66 57L67 55z"/>
<path style="fill:#010101; stroke:none;" d="M56 103L58 103C63.2132 92.1497 49.3957 89.9837 51.3302 79.0008C53.8122 64.9102 80.9111 62.8201 86.1065 76.0154C90.9671 88.3605 75.4281 92.4191 81 104C94.8851 91.1721 90.8834 73.9414 78.0401 63.4715C75.6609 61.5319 73.0438 56.3708 69.8549 55.9213C66.2284 55.4101 62.4718 61.6104 59.9961 63.6211C46.2486 74.7869 46.3087 88.305 56 103z"/>
<path style="fill:#e0d4c7; stroke:none;" d="M71 55L72 56L71 55M173.667 55.3333L174.333 55.6667L173.667 55.3333z"/>
<path style="fill:#93a8bd; stroke:none;" d="M44.3333 56.6667L44.6667 57.3333L44.3333 56.6667z"/>
<path style="fill:#e0d4c7; stroke:none;" d="M72 56L74 59L72 56M136 56L135 64L136 64L136 56M141 56L141 58L143 56L141 56M144 107L159 114.937L174 107L164.134 83L174 63L173 63L163.059 81L173 106L154 114C153.35 108.185 150.729 106.186 145 106C145.467 97.4648 153.501 93.6008 154.699 85C156.095 74.9781 146.104 74.788 145.167 66.9576C143.569 53.5929 166.031 56.0371 172 62C172.206 53.1744 148.969 54.518 145.179 60.3935C138.814 70.2596 152.877 73.8329 153.192 82C153.582 92.0762 144.091 96.828 144 107M175 56L176 57L175 56z"/>
<path style="fill:#93a8bd; stroke:none;" d="M50 57L53 61L54 59L54 58L50 57M73 57L74 58L73 57M85 58L86 61L89 57L85 58z"/>
<path style="fill:#e0d4c7; stroke:none;" d="M94.3333 57.6667L94.6667 58.3333L94.3333 57.6667z"/>
<path style="fill:#010101; stroke:none;" d="M145 106C150.339 106.404 152.937 108.748 154 114L173 106C172.514 96.6656 163.115 92.7719 163.059 83C163.01 74.3266 177.83 70.6703 171.821 61.3943C167.699 55.0312 148.845 54.789 145.603 62.2137C141.44 71.7512 154.477 73.5863 154.801 82C155.189 92.0888 145.234 96.3169 145 106z"/>
<path style="fill:#e0d4c7; stroke:none;" d="M176.333 57.6667L176.667 58.3333L176.333 57.6667M44 58L45 59L44 58M65 58L66 59L65 58z"/>
<path style="fill:#93a8bd; stroke:none;" d="M74 58L79 64L74 58z"/>
<path style="fill:#e0d4c7; stroke:none;" d="M87 58L88 59L87 58z"/>
<path style="fill:#93a8bd; stroke:none;" d="M93 58L91 62L93 58z"/>
<path style="fill:#e0d4c7; stroke:none;" d="M140 58L139 72L140 72L140 58z"/>
<path style="fill:#93a8bd; stroke:none;" d="M45 59L46 60L45 59z"/>
<path style="fill:#e0d4c7; stroke:none;" d="M52 59L52 60L56 61L52 59z"/>
<path style="fill:#93a8bd; stroke:none;" d="M55 59L56 61L57 61L58 59L55 59z"/>
<path style="fill:#e0d4c7; stroke:none;" d="M64 59L65 60L64 59z"/>
<path style="fill:#93a8bd; stroke:none;" d="M81 59L82 61L83 61L84 59L81 59z"/>
<path style="fill:#e0d4c7; stroke:none;" d="M83 60L83 61L87 60L83 60M45 60L46 61L45 60z"/>
<path style="fill:#010101; stroke:none;" d="M54 60L55 61L54 60z"/>
<path style="fill:#93a8bd; stroke:none;" d="M63 60L64 61L63 60z"/>
<path style="fill:#e0d4c7; stroke:none;" d="M74 60L75 61L74 60z"/>
<path style="fill:#010101; stroke:none;" d="M84 60L85 61L84 60z"/>
<path style="fill:#e0d4c7; stroke:none;" d="M93 60L94 61L93 60M177 60L177 64L178 64L177 60M46 61L47 62L46 61z"/>
<path style="fill:#93a8bd; stroke:none;" d="M54 61L55 62L54 61M62 61L63 62L62 61z"/>
<path style="fill:#e0d4c7; stroke:none;" d="M75 61L76 62L75 61M92 61L93 62L92 61M32 62L32 63L36 63L32 62z"/>
<path style="fill:#93a8bd; stroke:none;" d="M36 62L36 63L43 63L36 62z"/>
<path style="fill:#e0d4c7; stroke:none;" d="M43.6667 62.3333L44.3333 62.6667L43.6667 62.3333M47 62L50 65L47 62z"/>
<path style="fill:#93a8bd; stroke:none;" d="M61 62L62 63L61 62z"/>
<path style="fill:#e0d4c7; stroke:none;" d="M76 62L77 63L76 62M91 62L90 64L92 64L91 62M94.6667 62.3333L95.3333 62.6667L94.6667 62.3333z"/>
<path style="fill:#93a8bd; stroke:none;" d="M96 62L96 63L103 63L96 62z"/>
<path style="fill:#e0d4c7; stroke:none;" d="M103 62L103 63L107 63L103 62M30 63L31 64L30 63z"/>
<path style="fill:#93a8bd; stroke:none;" d="M31 63L32 64L31 63M45.6667 63.3333L46.3333 63.6667L45.6667 63.3333z"/>
<path style="fill:#e0d4c7; stroke:none;" d="M60 63L61 64L60 63M77 63L78 64L77 63z"/>
<path style="fill:#93a8bd; stroke:none;" d="M89 63L89 65L91 65L89 63M92 63L93 64L92 63M107 63L108 64L107 63z"/>
<path style="fill:#e0d4c7; stroke:none;" d="M108 63L109 64L108 63M28 64L29 65L28 64z"/>
<path style="fill:#93a8bd; stroke:none;" d="M48 64L49 65L48 64M58 64L59 65L58 64z"/>
<path style="fill:#e0d4c7; stroke:none;" d="M59 64L60 65L59 64M79 64L81 66L79 64z"/>
<path style="fill:#93a8bd; stroke:none;" d="M80 64L81 65L80 64M109 64L110 65L109 64z"/>
<path style="fill:#e0d4c7; stroke:none;" d="M110 64L111 65L110 64M134 64L137 81L138 81L134 64z"/>
<path style="fill:#93a8bd; stroke:none;" d="M27 65L28 66L27 65M56 65L57 66L56 65z"/>
<path style="fill:#e0d4c7; stroke:none;" d="M57 65L58 66L57 65z"/>
<path style="fill:#93a8bd; stroke:none;" d="M81 65L82 66L81 65M111 65L112 66L111 65z"/>
<path style="fill:#e0d4c7; stroke:none;" d="M178 65L178 70L179 70L178 65M26 66L27 67L26 66z"/>
<path style="fill:#93a8bd; stroke:none;" d="M54 66L53 68L54 66z"/>
<path style="fill:#e0d4c7; stroke:none;" d="M55 66L56 67L55 66M82 66L83 67L82 66z"/>
<path style="fill:#93a8bd; stroke:none;" d="M83 66L84 67L83 66z"/>
<path style="fill:#e0d4c7; stroke:none;" d="M112 66L113 67L112 66z"/>
<path style="fill:#93a8bd; stroke:none;" d="M26 67L26 70L27 70L26 67M33 67L33 68L36 68L33 67z"/>
<path style="fill:#e0d4c7; stroke:none;" d="M36 67L36 68L42 68L36 67z"/>
<path style="fill:#93a8bd; stroke:none;" d="M42.6667 67.3333L43.3333 67.6667L42.6667 67.3333z"/>
<path style="fill:#e0d4c7; stroke:none;" d="M54 67L55 68L54 67M66 67L66 68L73 68L66 67M84 67L88 75L89 75L84 67z"/>
<path style="fill:#93a8bd; stroke:none;" d="M85 67L86 68L85 67M94.6667 67.3333L95.3333 67.6667L94.6667 67.3333z"/>
<path style="fill:#e0d4c7; stroke:none;" d="M96 67L96 68L103 68L96 67z"/>
<path style="fill:#93a8bd; stroke:none;" d="M103 67L103 68L106 68L103 67M112.333 67.6667L112.667 68.3333L112.333 67.6667z"/>
<path style="fill:#e0d4c7; stroke:none;" d="M183 67L184 68L183 67z"/>
<path style="fill:#93a8bd; stroke:none;" d="M31 68L32 69L31 68z"/>
<path style="fill:#e0d4c7; stroke:none;" d="M32.3333 68.6667L32.6667 69.3333L32.3333 68.6667z"/>
<path style="fill:#010101; stroke:none;" d="M33 68C35.0174 73.8848 42.9608 73.8594 45 68L33 68z"/>
<path style="fill:#e0d4c7; stroke:none;" d="M45 68L45 71L46 71L45 68z"/>
<path style="fill:#93a8bd; stroke:none;" d="M52 68L53 69L52 68z"/>
<path style="fill:#e0d4c7; stroke:none;" d="M61 68L61 69L64 69L61 68z"/>
<path style="fill:#93a8bd; stroke:none;" d="M64 68L64 69L68 69L64 68M69 68L69 69L75 69L69 68z"/>
<path style="fill:#e0d4c7; stroke:none;" d="M75.6667 68.3333L76.3333 68.6667L75.6667 68.3333z"/>
<path style="fill:#93a8bd; stroke:none;" d="M86 68L87 69L86 68M92.3333 68.6667L92.6667 69.3333L92.3333 68.6667z"/>
<path style="fill:#e0d4c7; stroke:none;" d="M93 68L94 69L93 68z"/>
<path style="fill:#010101; stroke:none;" d="M93 69L93 70C98.1345 72.688 102.934 73.8391 106 68L93 69z"/>
<path style="fill:#e0d4c7; stroke:none;" d="M106 68L104 72L106 68z"/>
<path style="fill:#93a8bd; stroke:none;" d="M46 69L47 70L46 69M51 69L52 70L51 69z"/>
<path style="fill:#e0d4c7; stroke:none;" d="M59 69L60 70L59 69z"/>
<path style="fill:#93a8bd; stroke:none;" d="M60 69L60 70L63 70L60 69M76 69L76 70L84 73L84 72L76 69z"/>
<path style="fill:#e0d4c7; stroke:none;" d="M79 69L80 70L79 69z"/>
<path style="fill:#93a8bd; stroke:none;" d="M87 69L88 70L87 69z"/>
<path style="fill:#e0d4c7; stroke:none;" d="M112.333 69.6667L112.667 70.3333L112.333 69.6667M182 69L182 75L183 75L182 69M26 70L27 71L26 70z"/>
<path style="fill:#93a8bd; stroke:none;" d="M32 70L33 71L32 70z"/>
<path style="fill:#e0d4c7; stroke:none;" d="M51 70L52 71L51 70M55 72L58 71L55 72z"/>
<path style="fill:#93a8bd; stroke:none;" d="M58.6667 70.3333L59.3333 70.6667L58.6667 70.3333z"/>
<path style="fill:#e0d4c7; stroke:none;" d="M81 70L82 71L81 70M93 70L96 72L96 71L93 70z"/>
<path style="fill:#93a8bd; stroke:none;" d="M106 70L107 71L106 70M111 70L105 76L105 77C108.158 75.5112 111.08 73.7169 111 70z"/>
<path style="fill:#e0d4c7; stroke:none;" d="M177 70L174 76C176.756 74.4868 178.001 73.1369 177 70z"/>
<path style="fill:#93a8bd; stroke:none;" d="M27 71L28 72L27 71M33 71L33 72L41 74L41 73L33 71z"/>
<path style="fill:#e0d4c7; stroke:none;" d="M34 71L35 72L34 71M43 71L44 72L43 71z"/>
<path style="fill:#93a8bd; stroke:none;" d="M44.6667 71.3333L45.3333 71.6667L44.6667 71.3333M50 71L51 72L50 71M56 71L57 72L56 71z"/>
<path style="fill:#e0d4c7; stroke:none;" d="M83 71L84 72L83 71z"/>
<path style="fill:#93a8bd; stroke:none;" d="M88 71L89 72L88 71M93 71L94 72L93 71M105 71L106 72L105 71z"/>
<path style="fill:#e0d4c7; stroke:none;" d="M27 72L28 73L27 72M36 72L37 73L36 72M40.6667 72.3333L41.3333 72.6667L40.6667 72.3333z"/>
<path style="fill:#93a8bd; stroke:none;" d="M42.6667 72.3333L43.3333 72.6667L42.6667 72.3333z"/>
<path style="fill:#e0d4c7; stroke:none;" d="M50 72L51 73L50 72M53 72L54 73L53 72z"/>
<path style="fill:#93a8bd; stroke:none;" d="M54 72L55 73L54 72M67 72L67 73L72 73L67 72z"/>
<path style="fill:#e0d4c7; stroke:none;" d="M84 72L85 73L84 72z"/>
<path style="fill:#93a8bd; stroke:none;" d="M95.6667 72.3333L96.3333 72.6667L95.6667 72.3333z"/>
<path style="fill:#e0d4c7; stroke:none;" d="M97.6667 72.3333L98.3333 72.6667L97.6667 72.3333M102 72L103 73L102 72z"/>
<path style="fill:#93a8bd; stroke:none;" d="M103.667 72.3333L104.333 72.6667L103.667 72.3333z"/>
<path style="fill:#e0d4c7; stroke:none;" d="M111 72L112 73L111 72M140.333 72.6667L140.667 73.3333L140.333 72.6667M28 73L29 74L28 73z"/>
<path style="fill:#93a8bd; stroke:none;" d="M49.3333 73.6667L49.6667 74.3333L49.3333 73.6667M53.3333 73.6667L53.6667 74.3333L53.3333 73.6667M63 73L63 74L66 74L63 73z"/>
<path style="fill:#e0d4c7; stroke:none;" d="M66 73L66 74L73 74L66 73z"/>
<path style="fill:#93a8bd; stroke:none;" d="M73 73L73 74L76 74L73 73z"/>
<path style="fill:#e0d4c7; stroke:none;" d="M85 73L86 74L85 73z"/>
<path style="fill:#93a8bd; stroke:none;" d="M98 73L98 74L102 74L98 73z"/>
<path style="fill:#e0d4c7; stroke:none;" d="M110 73L111 74L110 73M29 74L30 75L29 74M52.3333 74.6667L52.6667 75.3333L52.3333 74.6667z"/>
<path style="fill:#93a8bd; stroke:none;" d="M57 76L57 77L62 75L57 76z"/>
<path style="fill:#e0d4c7; stroke:none;" d="M62.6667 74.3333L63.3333 74.6667L62.6667 74.3333z"/>
<path style="fill:#010101; stroke:none;" d="M57 116L69.054 123.704L82 116C79.5452 108.19 71.9844 104.033 72.9583 95.0039C73.682 88.2953 84.0661 86.3528 81.1019 79.1073C78.1225 71.8247 60.7385 71.7948 57.7469 79.1073C54.8682 86.1438 65.5102 89.1183 65.9267 96C66.4382 104.451 58.5453 108.341 57 116z"/>
<path style="fill:#e0d4c7; stroke:none;" d="M75.6667 74.3333L76.3333 74.6667L75.6667 74.3333z"/>
<path style="fill:#93a8bd; stroke:none;" d="M77 74L77 75L81 78L82 78L77 74M85 74L86 75L85 74M89.3333 74.6667L89.6667 75.3333L89.3333 74.6667z"/>
<path style="fill:#e0d4c7; stroke:none;" d="M109 74L110 75L109 74M141 74L142 75L141 74M30 75L34 78L34 77L30 75z"/>
<path style="fill:#93a8bd; stroke:none;" d="M31 75L32 76L31 75z"/>
<path style="fill:#e0d4c7; stroke:none;" d="M49 75L50 76L49 75M60 75L61 76L60 75M78 75L79 76L78 75M108 75L109 76L108 75M142 75L142 76L146 77L146 76L142 75M181 75L181 78L182 78L181 75z"/>
<path style="fill:#93a8bd; stroke:none;" d="M32 76L33 77L32 76M52 76L52 79L53 79L52 76z"/>
<path style="fill:#e0d4c7; stroke:none;" d="M58 76L59 77L58 76M80 76L81 77L80 76M86 76L87 77L86 76M89 76L89 79L90 79L89 76M107 76L108 77L107 76M172.667 76.3333L173.333 76.6667L172.667 76.3333z"/>
<path style="fill:#93a8bd; stroke:none;" d="M34 77L34 78L37 78L34 77M40 77L40 78L43 78L43 82L44 82L44 77L40 77M48.3333 77.6667L48.6667 78.3333L48.3333 77.6667z"/>
<path style="fill:#e0d4c7; stroke:none;" d="M51 77L51 87L52 87L51 77M57.3333 77.6667L57.6667 78.3333L57.3333 77.6667z"/>
<path style="fill:#93a8bd; stroke:none;" d="M86 77L86 80L87 80L86 77M95 77L95 78L98 78L95 77M102.667 77.3333L103.333 77.6667L102.667 77.3333z"/>
<path style="fill:#e0d4c7; stroke:none;" d="M104.667 77.3333L105.333 77.6667L104.667 77.3333M146 77L149 85L150 85C149.875 81.1224 149.498 78.9282 146 77M169 79L172 77L169 79M35 78L35 79L42 79L35 78z"/>
<path style="fill:#93a8bd; stroke:none;" d="M56 78C56.0266 85.5311 58.8306 87.9671 65 92L56 78z"/>
<path style="fill:#e0d4c7; stroke:none;" d="M81.3333 78.6667L81.6667 79.3333L81.3333 78.6667z"/>
<path style="fill:#93a8bd; stroke:none;" d="M90 78L90 82L91 82L90 78z"/>
<path style="fill:#e0d4c7; stroke:none;" d="M95 78L96 79L95 78M97 78L97 79L103 79L97 78M180 78L176 88L177 88L180 78M48 79L48 88L49 88L48 79z"/>
<path style="fill:#93a8bd; stroke:none;" d="M95 79L95 87L96 87L95 79z"/>
<path style="fill:#e0d4c7; stroke:none;" d="M168 79L169 90L170 90L168 79M138.333 81.6667L138.667 82.3333L138.333 81.6667z"/>
<path style="fill:#93a8bd; stroke:none;" d="M82 82L83 83L82 82z"/>
<path style="fill:#e0d4c7; stroke:none;" d="M90 82L91 83L90 82z"/>
<path style="fill:#93a8bd; stroke:none;" d="M43 83L43 88L44 88L43 83M90 83L90 89L91 89L90 83z"/>
<path style="fill:#e0d4c7; stroke:none;" d="M139.333 83.6667L139.667 84.3333L139.333 83.6667z"/>
<path style="fill:#93a8bd; stroke:none;" d="M86 84L86 87L87 87L86 84z"/>
<path style="fill:#e0d4c7; stroke:none;" d="M57 85L58 86L57 85M81 85L82 86L81 85M140.333 85.6667L140.667 86.3333L140.333 85.6667z"/>
<path style="fill:#93a8bd; stroke:none;" d="M52 86L56 91L52 86z"/>
<path style="fill:#e0d4c7; stroke:none;" d="M59 86L60 87L59 86M79 86L80 87L79 86z"/>
<path style="fill:#93a8bd; stroke:none;" d="M80 86L81 87L80 86z"/>
<path style="fill:#e0d4c7; stroke:none;" d="M148 86L143 90L144 93C147.145 91.4156 149.138 89.6199 148 86M61 87L62 88L61 87M77 87L76 89L77 87z"/>
<path style="fill:#93a8bd; stroke:none;" d="M78.6667 87.3333L79.3333 87.6667L78.6667 87.3333z"/>
<path style="fill:#e0d4c7; stroke:none;" d="M86 87L87 88L86 87M89 87L89 90L90 90L89 87M95 87L95 90L96 90L95 87M141 87L143 90L141 87M43.3333 88.6667L43.6667 89.3333L43.3333 88.6667z"/>
<path style="fill:#93a8bd; stroke:none;" d="M48.3333 88.6667L48.6667 89.3333L48.3333 88.6667z"/>
<path style="fill:#e0d4c7; stroke:none;" d="M52 88L53 89L52 88M62 88L63 89L62 88z"/>
<path style="fill:#93a8bd; stroke:none;" d="M77 88L78 89L77 88M85 88L78 94L85 88M94 88L92 97L93 97L94 88z"/>
<path style="fill:#e0d4c7; stroke:none;" d="M175 88L174 91L175 88M53 89L54 90L53 89M63 89L64 90L63 89M74 89L75 90L74 89z"/>
<path style="fill:#93a8bd; stroke:none;" d="M75 89L76 90L75 89z"/>
<path style="fill:#e0d4c7; stroke:none;" d="M85 89L86 90L85 89M209 145L210 145C211.399 140.293 213.65 136.106 219 136C220.399 131.293 222.65 127.106 228 127C229.399 122.293 231.65 118.106 237 118C238.399 113.293 240.65 109.106 246 109C249.402 97.5552 261.62 94.9986 271 92.6867C274.485 91.8277 279.104 88.7394 282.678 91.0424C286.441 93.4669 283.714 98.892 282.609 102C279.707 110.159 282.673 113.472 274 119C274.235 126.483 263.635 133.114 258.545 137.951C248.194 147.785 233.688 173.591 218 160L217 160C211.013 165.987 204.339 175.659 196 178L212.837 157L210 149L209 149L213 157L213 158C207.59 161.811 202.419 166.928 198.149 171.999C196.872 173.516 194.098 176.961 196.608 178.713C200.967 181.756 214.449 165.164 217 162C222.323 166.252 228.64 167.746 234.956 164.316C240.849 161.115 245.469 153.236 250.455 148.633C261.389 138.538 277.735 126.116 283.436 112C284.726 108.807 287.252 92.2945 284.397 90.0278C281.194 87.4847 266.752 89.6805 262.986 90.9437C258.847 92.3323 256.605 96.4389 252.914 98.5448C245.637 102.697 241.026 109.825 234.792 115.29C226.734 122.354 210.72 134.174 209 145z"/>
<path style="fill:#93a8bd; stroke:none;" d="M44.3333 90.6667L44.6667 91.3333L44.3333 90.6667z"/>
<path style="fill:#e0d4c7; stroke:none;" d="M49 90L50 91L49 90M54 90L55 91L54 90M64 90L65 91L64 90z"/>
<path style="fill:#93a8bd; stroke:none;" d="M74 90L73 101L74 101L74 90z"/>
<path style="fill:#e0d4c7; stroke:none;" d="M84 90L85 91L84 90z"/>
<path style="fill:#93a8bd; stroke:none;" d="M89.3333 90.6667L89.6667 91.3333L89.3333 90.6667z"/>
<path style="fill:#e0d4c7; stroke:none;" d="M170 90L171 91L170 90z"/>
<path style="fill:#ea922c; stroke:none;" d="M246 109C240.214 108.788 237.959 112.708 237 118C231.214 117.788 228.959 121.708 228 127C222.214 126.788 219.959 130.708 219 136C203.079 135.417 214.584 152.949 211.38 159C207.491 166.343 198.349 169.63 196 178C204.304 176.719 212.358 166.59 217 160L218 160C231.606 176.734 250.095 145.921 259.298 137.951C264.459 133.48 275.192 126.305 274 119C283.55 114.787 280.467 110.111 283.062 102C283.991 99.0983 286.489 93.4734 283.396 91.0285C280.03 88.3684 274.506 91.4473 271 92.1119C261.748 93.8656 248.09 97.4677 246 109z"/>
<path style="fill:#93a8bd; stroke:none;" d="M49.3333 91.6667L49.6667 92.3333L49.3333 91.6667z"/>
<path style="fill:#e0d4c7; stroke:none;" d="M56 91L57 92L56 91z"/>
<path style="fill:#93a8bd; stroke:none;" d="M57 91L58 92L57 91z"/>
<path style="fill:#e0d4c7; stroke:none;" d="M65 91L65 94L66 94L65 91M73 91L74 92L73 91M82 91L83 92L82 91M88.3333 91.6667L88.6667 92.3333L88.3333 91.6667M171 91L172 92L171 91M173 91L172 93L174 93L173 91M44.3333 92.6667L44.6667 93.3333L44.3333 92.6667M58 92L60 94L58 92z"/>
<path style="fill:#93a8bd; stroke:none;" d="M59 92L60 93L59 92z"/>
<path style="fill:#e0d4c7; stroke:none;" d="M80 92L81 93L80 92M94 92L95 93L94 92M50 93L51 94L50 93z"/>
<path style="fill:#93a8bd; stroke:none;" d="M60 93L60 100L61 100L60 93z"/>
<path style="fill:#e0d4c7; stroke:none;" d="M79 93L80 94L79 93z"/>
<path style="fill:#93a8bd; stroke:none;" d="M88 93L86 98L87 98L88 93M45 94L46 95L45 94M50 94L51 95L50 94M65 94L66 95L65 94z"/>
<path style="fill:#e0d4c7; stroke:none;" d="M72.3333 94.6667L72.6667 95.3333L72.3333 94.6667M78.3333 94.6667L78.6667 95.3333L78.3333 94.6667M87 94L88 95L87 94M270 105C275.244 104.713 278.233 103.073 280 98L279 98L271 104C271.703 99.4602 275.036 94.358 280 97C281.608 92.7348 275.215 94.4619 273.157 95.9306C270.048 98.1501 270.045 101.535 270 105M45 95L46 96L45 95M51 95L52 96L51 95M65 95L65 102L66 102L65 95M93 95L94 96L93 95z"/>
<path style="fill:#010101; stroke:none;" d="M271 104C276.451 103.004 279.004 100.451 280 95C274.383 95.8928 271.44 98.1792 271 104z"/>
<path style="fill:#93a8bd; stroke:none;" d="M46 96L47 97L46 96M51 96L52 97L51 96M78 96L78 101L79 101L78 96z"/>
<path style="fill:#e0d4c7; stroke:none;" d="M86 96L87 97L86 96M260 109C266.359 107.155 266.681 101.69 265 96C259.345 98.7898 258.638 103.21 260 109M46 97L47 98L46 97M52 97L53 98L52 97M92 97L93 98L92 97z"/>
<path style="fill:#010101; stroke:none;" d="M261 108L263 108L265 97C260.421 99.465 259.953 103.169 261 108z"/>
<path style="fill:#93a8bd; stroke:none;" d="M47 98L48 99L47 98M52 98L53 99L52 98z"/>
<path style="fill:#e0d4c7; stroke:none;" d="M85 98L86 99L85 98z"/>
<path style="fill:#93a8bd; stroke:none;" d="M91 98L90 101L91 101L91 98z"/>
<path style="fill:#e0d4c7; stroke:none;" d="M47 99L48 100L47 99z"/>
<path style="fill:#93a8bd; stroke:none;" d="M53 99L54 100L53 99M85 99L86 100L85 99z"/>
<path style="fill:#e0d4c7; stroke:none;" d="M91 99L92 100L91 99z"/>
<path style="fill:#93a8bd; stroke:none;" d="M48 100L49 101L48 100z"/>
<path style="fill:#e0d4c7; stroke:none;" d="M54 100L55 101L54 100M59 100L60 101L59 100z"/>
<path style="fill:#93a8bd; stroke:none;" d="M64 100L64 103L65 103L64 100z"/>
<path style="fill:#e0d4c7; stroke:none;" d="M84 100L83 102L84 100M48 101L49 102L48 101z"/>
<path style="fill:#93a8bd; stroke:none;" d="M54 101L55 102L54 101M59 101L55 103L55 104C57.5909 104.075 59.0876 103.82 59 101z"/>
<path style="fill:#e0d4c7; stroke:none;" d="M73.3333 101.667L73.6667 102.333L73.3333 101.667M79 101L80 102L79 101z"/>
<path style="fill:#93a8bd; stroke:none;" d="M84 101L85 102L84 101M89 101L90 102L89 101z"/>
<path style="fill:#e0d4c7; stroke:none;" d="M49 102L50 103L49 102M55 102L56 103L55 102M58 102L59 103L58 102z"/>
<path style="fill:#93a8bd; stroke:none;" d="M74 102L78 108L74 102M79.3333 102.667L79.6667 103.333L79.3333 102.667M83 102L84 103L83 102z"/>
<path style="fill:#e0d4c7; stroke:none;" d="M89 102L90 103L89 102z"/>
<path style="fill:#93a8bd; stroke:none;" d="M50 103L51 104L50 103z"/>
<path style="fill:#e0d4c7; stroke:none;" d="M56.6667 103.333L57.3333 103.667L56.6667 103.333M64 103L63 106L64 103M80 103L81 104L80 103M82 103L83 104L82 103z"/>
<path style="fill:#93a8bd; stroke:none;" d="M88 103L87 105L88 103z"/>
<path style="fill:#e0d4c7; stroke:none;" d="M50 104L51 105L50 104z"/>
<path style="fill:#93a8bd; stroke:none;" d="M63 104L64 105L63 104z"/>
<path style="fill:#e0d4c7; stroke:none;" d="M74 104L75 105L74 104z"/>
<path style="fill:#93a8bd; stroke:none;" d="M81.6667 104.333L82.3333 104.667L81.6667 104.333z"/>
<path style="fill:#e0d4c7; stroke:none;" d="M88 104L89 105L88 104M119 104L120 105L119 104z"/>
<path style="fill:#93a8bd; stroke:none;" d="M119 105L119 106L123 105L119 105z"/>
<path style="fill:#e0d4c7; stroke:none;" d="M123 104L123 105L126 106L123 104M254 104C240.552 111.239 259.762 123.048 256.206 109.025C255.744 107.203 254.863 105.647 254 104z"/>
<path style="fill:#93a8bd; stroke:none;" d="M51 105L53 110L54 110L51 105z"/>
<path style="fill:#e0d4c7; stroke:none;" d="M87 105L88 106L87 105z"/>
<path style="fill:#164a80; stroke:none;" d="M144 164C137.286 155.911 131.875 147.317 123 141.221C121.14 139.943 113.822 135.011 112.461 139.333C111.201 143.337 121.038 152.409 123.138 156C130.441 168.491 131.886 181.879 133 196C138.523 194.167 137.108 187.804 136.421 183C134.689 170.909 130.649 161.167 126 150C140.342 164.461 141.597 177.76 147 196L149 196C155.852 172.818 144.707 139.348 134 119C147.548 133.719 154.725 152.347 157.572 172C158.463 178.152 156.449 193.826 163 196C163 178.736 163.369 160.802 171.27 145C174.036 139.468 177.572 134.36 182.015 130.043C183.908 128.203 188.608 125.744 189.079 122.939C190.106 116.812 176.646 123.398 175 124.338C165.87 129.551 160.7 138.477 157 148C150.708 134.549 145.2 122.379 134 112.093C132.493 110.71 120.893 101.268 119.921 107.322C119.221 111.688 128.869 120.052 131.127 124C138.207 136.375 141.387 150.133 144 164z"/>
<path style="fill:#93a8bd; stroke:none;" d="M124 105L125 106L124 105z"/>
<path style="fill:#e0d4c7; stroke:none;" d="M51 106L52 107L51 106z"/>
<path style="fill:#93a8bd; stroke:none;" d="M62 106L63 107L62 106z"/>
<path style="fill:#e0d4c7; stroke:none;" d="M75 106L76 107L75 106z"/>
<path style="fill:#93a8bd; stroke:none;" d="M86 106L87 107L86 106z"/>
<path style="fill:#e0d4c7; stroke:none;" d="M118 106L118 109L119 109L118 106z"/>
<path style="fill:#93a8bd; stroke:none;" d="M126 106L127 107L126 106z"/>
<path style="fill:#e0d4c7; stroke:none;" d="M127 106L128 107L127 106z"/>
<path style="fill:#010101; stroke:none;" d="M252 106C249.899 110.45 249.781 114.351 255 116L254 106L252 106z"/>
<path style="fill:#93a8bd; stroke:none;" d="M61 107L62 108L61 107z"/>
<path style="fill:#e0d4c7; stroke:none;" d="M76 107L77 108L76 107M86 107L87 108L86 107z"/>
<path style="fill:#93a8bd; stroke:none;" d="M128 107L130 109L128 107z"/>
<path style="fill:#e0d4c7; stroke:none;" d="M129 107L130 108L129 107M52 108L52 111L53 111L52 108z"/>
<path style="fill:#93a8bd; stroke:none;" d="M59 108L57 112L58 112L59 108z"/>
<path style="fill:#e0d4c7; stroke:none;" d="M60 108L61 109L60 108z"/>
<path style="fill:#93a8bd; stroke:none;" d="M78 108L78 109L81 110L78 108M85.3333 108.667L85.6667 109.333L85.3333 108.667z"/>
<path style="fill:#e0d4c7; stroke:none;" d="M130 108L131 109L130 108M265 114C271.124 116.93 276.044 115.186 279 109C273.239 107.876 268.016 108.625 265 114M59 109L60 110L59 109M79 109L80 110L79 109z"/>
<path style="fill:#93a8bd; stroke:none;" d="M119 109L120 110L119 109M131 109L132 110L131 109z"/>
<path style="fill:#e0d4c7; stroke:none;" d="M58 110L59 111L58 110M80 110L81 111L80 110M120 110L121 111L120 110z"/>
<path style="fill:#93a8bd; stroke:none;" d="M132 110L141 119L132 110z"/>
<path style="fill:#e0d4c7; stroke:none;" d="M133 110L134 111L133 110M146 110L149 113L146 110M168 113L172 110L168 113z"/>
<path style="fill:#010101; stroke:none;" d="M267 114C271.9 115.33 274.89 113.923 278 110C273.339 110.004 269.455 109.548 267 114z"/>
<path style="fill:#93a8bd; stroke:none;" d="M52.3333 111.667L52.6667 112.333L52.3333 111.667M81.3333 111.667L81.6667 112.333L81.3333 111.667z"/>
<path style="fill:#e0d4c7; stroke:none;" d="M86 111L87 112L86 111z"/>
<path style="fill:#93a8bd; stroke:none;" d="M121 111L122 112L121 111z"/>
<path style="fill:#e0d4c7; stroke:none;" d="M134 111L135 112L134 111M51 112C51.0006 117.521 50.5978 122.115 55 126L51 112M57 112L58 113L57 112z"/>
<path style="fill:#93a8bd; stroke:none;" d="M86 112L86 115L87 115L86 112M122 112L123 113L122 112z"/>
<path style="fill:#e0d4c7; stroke:none;" d="M135 112L136 113L135 112z"/>
<path style="fill:#93a8bd; stroke:none;" d="M56 113L56 117L57 117L56 113z"/>
<path style="fill:#e0d4c7; stroke:none;" d="M81.3333 113.667L81.6667 114.333L81.3333 113.667z"/>
<path style="fill:#93a8bd; stroke:none;" d="M123 113L127 117L123 113z"/>
<path style="fill:#e0d4c7; stroke:none;" d="M136 113L137 114L136 113M245 113C231.061 120.315 251.164 131.879 247.301 118.025C246.811 116.269 245.812 114.616 245 113M123 114L124 115L123 114M137 114L138 115L137 114z"/>
<path style="fill:#010101; stroke:none;" d="M243 114C241.195 118.993 240.798 122.289 245 126C247.075 121.069 247.172 117.682 243 114z"/>
<path style="fill:#e0d4c7; stroke:none;" d="M124 115L125 116L124 115M138 115L139 116L138 115M57 116L57 117L60 117L57 116M78 116L78 117L82 117L78 116z"/>
<path style="fill:#93a8bd; stroke:none;" d="M82 116L83 117L82 116z"/>
<path style="fill:#e0d4c7; stroke:none;" d="M125 116L126 117L125 116M139 116L140 117L139 116z"/>
<path style="fill:#93a8bd; stroke:none;" d="M60 117L61 118L60 117z"/>
<path style="fill:#e0d4c7; stroke:none;" d="M61 117L61 118L64 121L65 121L61 117M76 117L72 124L73 124L76 117z"/>
<path style="fill:#93a8bd; stroke:none;" d="M77.6667 117.333L78.3333 117.667L77.6667 117.333M81 117L82 118L81 117z"/>
<path style="fill:#e0d4c7; stroke:none;" d="M126 117L127 118L126 117M140 117L141 118L140 117z"/>
<path style="fill:#93a8bd; stroke:none;" d="M62 118L63 119L62 118M76 118L77 119L76 118M127 118L129 120L127 118z"/>
<path style="fill:#e0d4c7; stroke:none;" d="M270 120C268.362 119.403 266.706 118.68 264.975 118.391C250.356 115.954 265.863 133.629 270 120z"/>
<path style="fill:#93a8bd; stroke:none;" d="M63 119L64 120L63 119M75 119L76 120L75 119z"/>
<path style="fill:#e0d4c7; stroke:none;" d="M127 119L128 120L127 119z"/>
<path style="fill:#93a8bd; stroke:none;" d="M134 119L136 124L137 124L138 122L134 119M141 119L142 120L141 119z"/>
<path style="fill:#e0d4c7; stroke:none;" d="M183 119L183 120L190 122C190.59 118.42 185.655 119.011 183 119z"/>
<path style="fill:#010101; stroke:none;" d="M258 121L258 122C262.204 124.24 265.546 124.526 269 121C264.855 119.009 262.087 118.831 258 121z"/>
<path style="fill:#93a8bd; stroke:none;" d="M74.3333 120.667L74.6667 121.333L74.3333 120.667M86.3333 120.667L86.6667 121.333L86.3333 120.667z"/>
<path style="fill:#e0d4c7; stroke:none;" d="M128 120L129 121L128 120M142 120L143 121L142 120M180.667 120.333L181.333 120.667L180.667 120.333z"/>
<path style="fill:#93a8bd; stroke:none;" d="M182.667 120.333L183.333 120.667L182.667 120.333M189 120L190 121L189 120M52 121L53 122L52 121M64.3333 121.667L64.6667 122.333L64.3333 121.667M129 121L131 125L132 125L129 121z"/>
<path style="fill:#e0d4c7; stroke:none;" d="M143 121L145 123L143 121M178 121L179 122L178 121z"/>
<path style="fill:#93a8bd; stroke:none;" d="M179.667 121.333L180.333 121.667L179.667 121.333M59 122L60 123L59 122z"/>
<path style="fill:#e0d4c7; stroke:none;" d="M65.3333 122.667L65.6667 123.333L65.3333 122.667z"/>
<path style="fill:#93a8bd; stroke:none;" d="M79 122L80 123L79 122M85 122L86 123L85 122z"/>
<path style="fill:#e0d4c7; stroke:none;" d="M129 122L130 123L129 122M136 122L137 123L136 122z"/>
<path style="fill:#93a8bd; stroke:none;" d="M143 122L144 123L143 122z"/>
<path style="fill:#e0d4c7; stroke:none;" d="M176 122L177 123L176 122z"/>
<path style="fill:#93a8bd; stroke:none;" d="M177.667 122.333L178.333 122.667L177.667 122.333M190 122L191 123L190 122z"/>
<path style="fill:#e0d4c7; stroke:none;" d="M236 122C222.414 129.313 241.895 140.973 238.357 127.025C237.891 125.188 236.913 123.631 236 122z"/>
<path style="fill:#93a8bd; stroke:none;" d="M53 123L54 124L53 123M73 123L74 124L73 123z"/>
<path style="fill:#e0d4c7; stroke:none;" d="M85 123L86 124L85 123M137 123L137 125L139 125L137 123z"/>
<path style="fill:#93a8bd; stroke:none;" d="M144 123L145 124L144 123z"/>
<path style="fill:#e0d4c7; stroke:none;" d="M174 123L173 125L174 123z"/>
<path style="fill:#93a8bd; stroke:none;" d="M175.667 123.333L176.333 123.667L175.667 123.333z"/>
<path style="fill:#e0d4c7; stroke:none;" d="M190 123L191 124L190 123z"/>
<path style="fill:#93a8bd; stroke:none;" d="M54 124L55 125L54 124M65 124L65 125L73 125L65 124M84 124L85 125L84 124z"/>
<path style="fill:#e0d4c7; stroke:none;" d="M130 124L131 125L130 124M145 124L147 126L145 124z"/>
<path style="fill:#93a8bd; stroke:none;" d="M174 124L175 125L174 124M189 124L190 125L189 124z"/>
<path style="fill:#010101; stroke:none;" d="M234 124C232.242 128.389 231.934 132.357 237 134L236 124L234 124z"/>
<path style="fill:#93a8bd; stroke:none;" d="M55 125L56 126L55 125M78 127L78 128L84 126L78 127z"/>
<path style="fill:#e0d4c7; stroke:none;" d="M131 125L132 126L131 125z"/>
<path style="fill:#93a8bd; stroke:none;" d="M137 125L138 126L137 125z"/>
<path style="fill:#010101; stroke:none;" d="M138 125L139 128L140 128L138 125z"/>
<path style="fill:#93a8bd; stroke:none;" d="M139 125L140 126L139 125M145 125L146 126L145 125z"/>
<path style="fill:#e0d4c7; stroke:none;" d="M171 125L169 128L171 125z"/>
<path style="fill:#93a8bd; stroke:none;" d="M172 125L173 126L172 125M187 125L180 132L188 126L187 125z"/>
<path style="fill:#e0d4c7; stroke:none;" d="M188 125L189 126L188 125M56 126L56 127L62 129C61.977 137.349 58.3847 152.129 66.3935 158.243C70.5258 161.398 74.8461 157.897 76.517 153.981C79.7696 146.359 78.8815 137.812 77 130L80 129L80 128C72.7271 130.422 78.9681 147.361 74.9105 153.952C71.4486 159.576 66.2957 157.332 64.1474 151.996C61.0616 144.332 63.0098 136.795 64 129L56 126z"/>
<path style="fill:#93a8bd; stroke:none;" d="M57 126L58 127L57 126z"/>
<path style="fill:#e0d4c7; stroke:none;" d="M82 126L83 127L82 126z"/>
<path style="fill:#93a8bd; stroke:none;" d="M132 126L133 127L132 126z"/>
<path style="fill:#e0d4c7; stroke:none;" d="M138 126L139 127L138 126z"/>
<path style="fill:#93a8bd; stroke:none;" d="M140 126L142 128L140 126M146 126L147 127L146 126M171 126L172 127L171 126z"/>
<path style="fill:#e0d4c7; stroke:none;" d="M187 126L188 127L187 126z"/>
<path style="fill:#93a8bd; stroke:none;" d="M59.6667 127.333L60.3333 127.667L59.6667 127.333z"/>
<path style="fill:#e0d4c7; stroke:none;" d="M80 127L81 128L80 127M132 127L133 128L132 127z"/>
<path style="fill:#93a8bd; stroke:none;" d="M138 127L139 128L138 127z"/>
<path style="fill:#e0d4c7; stroke:none;" d="M140 127L141 128L140 127z"/>
<path style="fill:#93a8bd; stroke:none;" d="M147 127L149 130L147 127M170 127L171 128L170 127z"/>
<path style="fill:#e0d4c7; stroke:none;" d="M185 127L186 128L185 127M261 129C259.362 128.403 257.706 127.68 255.975 127.391C241.356 124.954 256.863 142.629 261 129z"/>
<path style="fill:#93a8bd; stroke:none;" d="M62 128L62 129L65 129L62 128M75.6667 128.333L76.3333 128.667L75.6667 128.333M133 128L134 129L133 128z"/>
<path style="fill:#e0d4c7; stroke:none;" d="M139 128L140 129L139 128M141 128L143 131L141 128M148 128L149 129L148 128M168 128L169 129L168 128M184 128L185 129L184 128z"/>
<path style="fill:#010101; stroke:none;" d="M249 132L260 132L260 130C255.417 128.333 251.667 127.167 249 132z"/>
<path style="fill:#ea922c; stroke:none;" d="M64 129C62.9762 134.434 58.9967 160.613 70.9599 158.029C80.6534 155.936 76.8344 135.602 76 129L72 129C73.2977 138.637 74.4707 145.549 71 155L69 155C65.6037 145.751 65.5642 138.218 69 129L64 129z"/>
<path style="fill:#e0d4c7; stroke:none;" d="M69 129L67 135L68 135L69 131L71 131L71 153L69 153L67 136L66 136L69 155L71 155C74.9771 146.875 75.0595 137.089 71 129L69 129z"/>
<path style="fill:#93a8bd; stroke:none;" d="M71 129L72 130L71 129z"/>
<path style="fill:#e0d4c7; stroke:none;" d="M82 147L83 147C86.8208 140.988 104.716 121.117 108 137C110.277 130.367 103.101 128.358 98 130.534C90.5649 133.705 85.1447 139.713 82 147M133 129L134 130L133 129z"/>
<path style="fill:#93a8bd; stroke:none;" d="M139 129L140 130L139 129M142 129L143 130L142 129M167 129L168 130L167 129z"/>
<path style="fill:#e0d4c7; stroke:none;" d="M183 129L184 130L183 129z"/>
<path style="fill:#ea922c; stroke:none;" d="M100.996 130.682C93.5427 132.382 86.5042 139.423 83.1389 146C80.7364 150.695 80.8189 157.746 88.0039 156.562C95.601 155.312 103.56 146.699 106.582 140C108.689 135.328 107.262 129.253 100.996 130.682z"/>
<path style="fill:#93a8bd; stroke:none;" d="M134 130L135 131L134 130M143 130L145 133L143 130z"/>
<path style="fill:#e0d4c7; stroke:none;" d="M149 130L150 131L149 130M166 130L164 133L166 130z"/>
<path style="fill:#93a8bd; stroke:none;" d="M174 130L173 132L174 130z"/>
<path style="fill:#e0d4c7; stroke:none;" d="M182 130L183 131L182 130z"/>
<path style="fill:#010101; stroke:none;" d="M69 131C66.0332 138.031 66.5832 145.861 69 153L71 153C73.0259 145.169 73.193 138.804 71 131L69 131z"/>
<path style="fill:#e0d4c7; stroke:none;" d="M134 131L135 132L134 131M140 131L141 132L140 131z"/>
<path style="fill:#93a8bd; stroke:none;" d="M149 131L150 132L149 131M166 131L167 132L166 131z"/>
<path style="fill:#e0d4c7; stroke:none;" d="M181 131L182 132L181 131M227 131C213.241 138.221 232.903 150.003 229.357 136.025C228.891 134.188 227.913 132.631 227 131z"/>
<path style="fill:#93a8bd; stroke:none;" d="M135 132L136 133L135 132M140 132L141 133L140 132z"/>
<path style="fill:#e0d4c7; stroke:none;" d="M143 132L144 133L143 132M150 132L151 135L152 135L150 132z"/>
<path style="fill:#93a8bd; stroke:none;" d="M165 132L166 133L165 132z"/>
<path style="fill:#e0d4c7; stroke:none;" d="M172 132L167 139L172 132z"/>
<path style="fill:#93a8bd; stroke:none;" d="M179 132L180 133L179 132z"/>
<path style="fill:#010101; stroke:none;" d="M225 132C223.195 136.993 222.798 140.289 227 144C229.301 139.184 228.92 135.737 225 132z"/>
<path style="fill:#e0d4c7; stroke:none;" d="M47 133.654C38.8242 135.75 31.7325 143.442 28.5332 151C26.2887 156.302 28.2018 162.579 35.0008 161.427C42.9369 160.082 51.6049 151.216 54.5162 144C56.8722 138.16 54.1302 131.825 47 133.654M135 133L136 134L135 133M141 133L142 134L141 133M144 133L145 134L144 133z"/>
<path style="fill:#93a8bd; stroke:none;" d="M150 133L151 134L150 133M164 133L165 134L164 133M172 133L173 134L172 133M178 133L177 135L178 133z"/>
<path style="fill:#ea922c; stroke:none;" d="M47.9961 134.576C40.5825 135.897 33.2229 143.528 30 150C27.626 154.767 28.2502 160.944 35.0008 160.044C42.4783 159.047 49.7957 151.43 53 145C55.3786 140.227 55.0694 133.316 47.9961 134.576z"/>
<path style="fill:#e0d4c7; stroke:none;" d="M85 153C94.2563 151.995 102.995 143.256 104 134C94.7931 135.667 86.6666 143.793 85 153z"/>
<path style="fill:#93a8bd; stroke:none;" d="M141.333 134.667L141.667 135.333L141.333 134.667M145 134L146 135L145 134M163 134L164 135L163 134M171 134L172 135L171 134z"/>
<path style="fill:#e0d4c7; stroke:none;" d="M178 134L179 135L178 134z"/>
<path style="fill:#010101; stroke:none;" d="M86 152C93.775 149.971 101.389 143.012 103 135C95.086 137.351 88.5015 144.166 86 152z"/>
<path style="fill:#93a8bd; stroke:none;" d="M136 135L137 136L136 135z"/>
<path style="fill:#e0d4c7; stroke:none;" d="M145 135L146 136L145 135z"/>
<path style="fill:#93a8bd; stroke:none;" d="M151 135L152 136L151 135z"/>
<path style="fill:#e0d4c7; stroke:none;" d="M162 135L161 137L162 135z"/>
<path style="fill:#93a8bd; stroke:none;" d="M169 135L170 136L169 135z"/>
<path style="fill:#e0d4c7; stroke:none;" d="M177 135L178 136L177 135M111 142L112 142C112.164 138.358 113.474 137.564 117 137C112.574 135.194 110.137 137.468 111 142M136 136L137 137L136 136z"/>
<path style="fill:#93a8bd; stroke:none;" d="M142.333 136.667L142.667 137.333L142.333 136.667M146 136L147 137L146 136z"/>
<path style="fill:#e0d4c7; stroke:none;" d="M152 136L153 137L152 136z"/>
<path style="fill:#93a8bd; stroke:none;" d="M162 136L163 137L162 136M168 136L169 137L168 136M170 136L171 137L170 136M176 136L177 137L176 136z"/>
<path style="fill:#e0d4c7; stroke:none;" d="M198 136L198 137L204 141C205.188 136.666 201.589 136.119 198 136M244 143L244 142L240 140L240 139L251 139L246 142L246 143L253 139C249.997 137.318 246.638 135.487 243.059 136.449C237.77 137.87 240.339 141.887 244 143z"/>
<path style="fill:#93a8bd; stroke:none;" d="M112 137L113 138L112 137M116 137L116 138L121 140L121 139L116 137z"/>
<path style="fill:#e0d4c7; stroke:none;" d="M118 137L119 138L118 137z"/>
<path style="fill:#93a8bd; stroke:none;" d="M137.333 137.667L137.667 138.333L137.333 137.667z"/>
<path style="fill:#e0d4c7; stroke:none;" d="M146 137L147 138L146 137z"/>
<path style="fill:#93a8bd; stroke:none;" d="M152 137L153 138L152 137M161 137L160 140L161 137M167 137L168 138L167 137M169 137L170 138L169 137M175 137L176 138L175 137z"/>
<path style="fill:#e0d4c7; stroke:none;" d="M196 137L192 141L197 138L196 137z"/>
<path style="fill:#93a8bd; stroke:none;" d="M196 139L199 138L196 139z"/>
<path style="fill:#164a80; stroke:none;" d="M168 196L170 196C175.531 177.329 176.221 163.819 191 149C184.196 161.986 176.617 181.17 181 196L183 196C187.519 180.746 186.156 166.121 195.345 152C196.989 149.474 204.602 141.744 202.168 138.647C198.457 133.923 186.622 145.595 184.289 148.09C173.544 159.579 163.237 179.888 168 196z"/>
<path style="fill:#93a8bd; stroke:none;" d="M202 137L203 138L202 137z"/>
<path style="fill:#010101; stroke:none;" d="M240 139L240 140C244.33 142.765 247.409 142.871 251 139C246.855 137.009 244.087 136.831 240 139z"/>
<path style="fill:#e0d4c7; stroke:none;" d="M32 157C41.2958 155.322 49.3153 147.307 51 138C41.5941 139.678 33.5044 147.489 32 157M107.333 138.667L107.667 139.333L107.333 138.667z"/>
<path style="fill:#93a8bd; stroke:none;" d="M111 138L112 139L111 138z"/>
<path style="fill:#e0d4c7; stroke:none;" d="M120 138L121 139L120 138M143 138L144 139L143 138z"/>
<path style="fill:#93a8bd; stroke:none;" d="M147 138L148 139L147 138z"/>
<path style="fill:#e0d4c7; stroke:none;" d="M153 138L154 139L153 138M160 138L161 139L160 138M175 138L176 139L175 138z"/>
<path style="fill:#93a8bd; stroke:none;" d="M203 138L204 139L203 138z"/>
<path style="fill:#010101; stroke:none;" d="M33 156C40.8236 153.092 47.5821 147.141 50 139C41.9882 141.379 35.3788 147.988 33 156z"/>
<path style="fill:#e0d4c7; stroke:none;" d="M121 139L122 140L121 139M137 139L138 140L137 139z"/>
<path style="fill:#93a8bd; stroke:none;" d="M143.333 139.667L143.667 140.333L143.333 139.667z"/>
<path style="fill:#e0d4c7; stroke:none;" d="M147 139L148 140L147 139z"/>
<path style="fill:#93a8bd; stroke:none;" d="M153 139L154 140L153 139M166 139L165 141L166 139z"/>
<path style="fill:#010101; stroke:none;" d="M167 139L168 140L167 139z"/>
<path style="fill:#93a8bd; stroke:none;" d="M168 139L169 140L168 139M174 139L175 140L174 139M194 139L195 140L194 139z"/>
<path style="fill:#e0d4c7; stroke:none;" d="M106.333 140.667L106.667 141.333L106.333 140.667z"/>
<path style="fill:#93a8bd; stroke:none;" d="M111 140L112 141L111 140M122 140L125 143L122 140z"/>
<path style="fill:#e0d4c7; stroke:none;" d="M123 140L124 141L123 140z"/>
<path style="fill:#93a8bd; stroke:none;" d="M138.333 140.667L138.667 141.333L138.333 140.667M148 140L149 141L148 140z"/>
<path style="fill:#e0d4c7; stroke:none;" d="M154.333 140.667L154.667 141.333L154.333 140.667M159 140L160 141L159 140M166 143L167 143L168 141L166 143z"/>
<path style="fill:#93a8bd; stroke:none;" d="M173 140L174 141L173 140M193 140L194 141L193 140M203 140L199 146L203 140z"/>
<path style="fill:#e0d4c7; stroke:none;" d="M218 140C204.414 147.313 223.895 158.973 220.357 145.025C219.891 143.188 218.913 141.631 218 140M124 141L125 142L124 141M144.333 141.667L144.667 142.333L144.333 141.667M148 141L149 142L148 141z"/>
<path style="fill:#93a8bd; stroke:none;" d="M159 141L160 142L159 141z"/>
<path style="fill:#010101; stroke:none;" d="M166 141L167 142L166 141z"/>
<path style="fill:#93a8bd; stroke:none;" d="M167 141L168 142L167 141z"/>
<path style="fill:#e0d4c7; stroke:none;" d="M173 141L174 142L173 141M190 141L187 145L190 141z"/>
<path style="fill:#93a8bd; stroke:none;" d="M191 141L192 142L191 141z"/>
<path style="fill:#e0d4c7; stroke:none;" d="M105 142L104 145L105 142z"/>
<path style="fill:#93a8bd; stroke:none;" d="M112 142L113 143L112 142z"/>
<path style="fill:#e0d4c7; stroke:none;" d="M125 142L126 143L125 142M138 142L139 143L138 142z"/>
<path style="fill:#93a8bd; stroke:none;" d="M149 142L150 146L151 146L149 142M154 142L155 143L154 142z"/>
<path style="fill:#e0d4c7; stroke:none;" d="M158 142L159 143L158 142z"/>
<path style="fill:#93a8bd; stroke:none;" d="M164 142L165 143L164 142z"/>
<path style="fill:#010101; stroke:none;" d="M165 142L160 158L161 158L165 142z"/>
<path style="fill:#93a8bd; stroke:none;" d="M172 142L173 143L172 142M190 142L191 143L190 142z"/>
<path style="fill:#e0d4c7; stroke:none;" d="M203 142L204 143L203 142z"/>
<path style="fill:#010101; stroke:none;" d="M216 142L216 153L218 153L218 142L216 142z"/>
<path style="fill:#93a8bd; stroke:none;" d="M113 143L114 144L113 143M126 143L136 153L126 143z"/>
<path style="fill:#e0d4c7; stroke:none;" d="M127 143L128 144L127 143z"/>
<path style="fill:#93a8bd; stroke:none;" d="M144.333 143.667L144.667 144.333L144.333 143.667z"/>
<path style="fill:#e0d4c7; stroke:none;" d="M155 143L156 144L155 143z"/>
<path style="fill:#93a8bd; stroke:none;" d="M158.333 143.667L158.667 144.333L158.333 143.667z"/>
<path style="fill:#e0d4c7; stroke:none;" d="M164 143L165 144L164 143z"/>
<path style="fill:#93a8bd; stroke:none;" d="M166 143L162 156L163 156L166 143z"/>
<path style="fill:#e0d4c7; stroke:none;" d="M172 143L173 144L172 143z"/>
<path style="fill:#93a8bd; stroke:none;" d="M189 143L190 144L189 143z"/>
<path style="fill:#e0d4c7; stroke:none;" d="M202 143L203 144L202 143z"/>
<path style="fill:#93a8bd; stroke:none;" d="M114 144L115 145L114 144z"/>
<path style="fill:#e0d4c7; stroke:none;" d="M128 144L129 145L128 144z"/>
<path style="fill:#93a8bd; stroke:none;" d="M139 144L140 145L139 144z"/>
<path style="fill:#e0d4c7; stroke:none;" d="M149 144L150 145L149 144z"/>
<path style="fill:#93a8bd; stroke:none;" d="M155 144L156 145L155 144z"/>
<path style="fill:#e0d4c7; stroke:none;" d="M157 144L156 147L157 144z"/>
<path style="fill:#93a8bd; stroke:none;" d="M163 144L164 145L163 144z"/>
<path style="fill:#e0d4c7; stroke:none;" d="M165 144L166 145L165 144z"/>
<path style="fill:#93a8bd; stroke:none;" d="M171 144L172 145L171 144M188 144L189 145L188 144z"/>
<path style="fill:#e0d4c7; stroke:none;" d="M201 144L202 145L201 144M103 145L104 146L103 145z"/>
<path style="fill:#93a8bd; stroke:none;" d="M115 145L119 149L115 145z"/>
<path style="fill:#e0d4c7; stroke:none;" d="M129 145L130 146L129 145M139 145L139 148L140 148L139 145M145 145L146 146L145 145M163 145L164 146L163 145M171 145L170 149L171 149L171 145z"/>
<path style="fill:#93a8bd; stroke:none;" d="M186 145L187 146L186 145z"/>
<path style="fill:#e0d4c7; stroke:none;" d="M200 145L201 146L200 145M243 147C241.362 146.403 239.706 145.68 237.975 145.391C223.356 142.954 238.862 160.629 243 147M102 146L97 152L102 146M115 146L116 147L115 146M130 146L131 147L130 146z"/>
<path style="fill:#93a8bd; stroke:none;" d="M145 146L145 149L146 149L145 146z"/>
<path style="fill:#e0d4c7; stroke:none;" d="M150 146L151 147L150 146z"/>
<path style="fill:#93a8bd; stroke:none;" d="M157 146L158 147L157 146M162 146L161 150L162 150L162 146z"/>
<path style="fill:#e0d4c7; stroke:none;" d="M164 146L165 147L164 146z"/>
<path style="fill:#93a8bd; stroke:none;" d="M170 146L171 147L170 146M185 146L186 147L185 146z"/>
<path style="fill:#e0d4c7; stroke:none;" d="M199 146L200 147L199 146z"/>
<path style="fill:#010101; stroke:none;" d="M231 150L242 150L242 148C237.417 146.333 233.667 145.167 231 150z"/>
<path style="fill:#e0d4c7; stroke:none;" d="M116 147L117 148L116 147M131 147L132 148L131 147z"/>
<path style="fill:#93a8bd; stroke:none;" d="M140.333 147.667L140.667 148.333L140.333 147.667M151.333 147.667L151.667 148.333L151.333 147.667M156 147L157 148L156 147M184 147L185 148L184 147M198 147L199 148L198 147z"/>
<path style="fill:#e0d4c7; stroke:none;" d="M208 147L209 148L208 147M81.3333 148.667L81.6667 149.333L81.3333 148.667M117 148L118 149L117 148M132 148L133 149L132 148M162 148L163 149L162 148z"/>
<path style="fill:#93a8bd; stroke:none;" d="M169.333 148.667L169.667 149.333L169.333 148.667z"/>
<path style="fill:#e0d4c7; stroke:none;" d="M183 148L184 149L183 148z"/>
<path style="fill:#93a8bd; stroke:none;" d="M191 148L192 149L191 148M197 148L198 149L197 148z"/>
<path style="fill:#e0d4c7; stroke:none;" d="M118 149L119 150L118 149z"/>
<path style="fill:#93a8bd; stroke:none;" d="M125 149L126 150L125 149z"/>
<path style="fill:#e0d4c7; stroke:none;" d="M133 149L134 150L133 149M140 149L140 152L141 152L140 149M146 149L147 150L146 149M151 149L152 150L151 149M163 149L164 150L163 149M182 149L180 152L182 149z"/>
<path style="fill:#93a8bd; stroke:none;" d="M190 149L189 152L190 149z"/>
<path style="fill:#e0d4c7; stroke:none;" d="M197 149L198 150L197 149M119 150L120 151L119 150z"/>
<path style="fill:#93a8bd; stroke:none;" d="M126 150L127 154L133 157L126 150z"/>
<path style="fill:#e0d4c7; stroke:none;" d="M134 150L135 151L134 150z"/>
<path style="fill:#93a8bd; stroke:none;" d="M146 150L146 154L147 154L146 150M152.333 150.667L152.667 151.333L152.333 150.667z"/>
<path style="fill:#e0d4c7; stroke:none;" d="M161 150L162 151L161 150M169.333 150.667L169.667 151.333L169.333 150.667z"/>
<path style="fill:#93a8bd; stroke:none;" d="M182 150L183 151L182 150z"/>
<path style="fill:#e0d4c7; stroke:none;" d="M189 150L190 151L189 150M196 150L197 151L196 150M80 151L80 154L81 154L80 151z"/>
<path style="fill:#93a8bd; stroke:none;" d="M120 151L121 152L120 151z"/>
<path style="fill:#e0d4c7; stroke:none;" d="M135 151L136 152L135 151z"/>
<path style="fill:#93a8bd; stroke:none;" d="M141.333 151.667L141.667 152.333L141.333 151.667M160.333 151.667L160.667 152.333L160.333 151.667M168.333 151.667L168.667 152.333L168.333 151.667M181 151L182 152L181 151z"/>
<path style="fill:#e0d4c7; stroke:none;" d="M188.333 151.667L188.667 152.333L188.333 151.667z"/>
<path style="fill:#93a8bd; stroke:none;" d="M195 151L196 152L195 151z"/>
<path style="fill:#e0d4c7; stroke:none;" d="M96 152L97 153L96 152M120 152L121 153L120 152M127 152L128 153L127 152M152 152L153 153L152 152M162 152L163 153L162 152z"/>
<path style="fill:#93a8bd; stroke:none;" d="M180 152L181 153L180 152M186 153L186 154L189 154L186 153z"/>
<path style="fill:#e0d4c7; stroke:none;" d="M195 152L196 153L195 152M93 155L96 153L93 155M121 153L122 154L121 153M128 153L130 158L131 158L132 156L128 153z"/>
<path style="fill:#93a8bd; stroke:none;" d="M136 153L137 154L136 153z"/>
<path style="fill:#e0d4c7; stroke:none;" d="M141 153L141 157L142 157L141 153M147.333 153.667L147.667 154.333L147.333 153.667z"/>
<path style="fill:#93a8bd; stroke:none;" d="M153.333 153.667L153.667 154.333L153.333 153.667z"/>
<path style="fill:#e0d4c7; stroke:none;" d="M160 153L161 154L160 153M168.333 153.667L168.667 154.333L168.333 153.667z"/>
<path style="fill:#93a8bd; stroke:none;" d="M179 153L180 154L179 153z"/>
<path style="fill:#010101; stroke:none;" d="M187 153L188 154L187 153z"/>
<path style="fill:#93a8bd; stroke:none;" d="M194 153L195 154L194 153z"/>
<path style="fill:#e0d4c7; stroke:none;" d="M81.3333 154.667L81.6667 155.333L81.3333 154.667z"/>
<path style="fill:#93a8bd; stroke:none;" d="M122 154L123 155L122 154z"/>
<path style="fill:#010101; stroke:none;" d="M129 154L130 155L129 154z"/>
<path style="fill:#e0d4c7; stroke:none;" d="M137 154L139 156L137 154z"/>
<path style="fill:#93a8bd; stroke:none;" d="M167 154L165 166L166 166L167 154z"/>
<path style="fill:#e0d4c7; stroke:none;" d="M178 154L177 156L178 154z"/>
<path style="fill:#93a8bd; stroke:none;" d="M185 154L186 155L185 154z"/>
<path style="fill:#e0d4c7; stroke:none;" d="M187 154L188 155L187 154z"/>
<path style="fill:#93a8bd; stroke:none;" d="M193 154L194 155L193 154z"/>
<path style="fill:#e0d4c7; stroke:none;" d="M234 156C232.362 155.403 230.706 154.68 228.975 154.391C214.38 151.958 229.902 169.499 234 156M91.6667 155.333L92.3333 155.667L91.6667 155.333M122 155L123 156L122 155z"/>
<path style="fill:#93a8bd; stroke:none;" d="M128 155L129 156L128 155M137 155L138 156L137 155M142 155L142 159L143 159L142 155M147 155L147 159L148 159L147 155z"/>
<path style="fill:#e0d4c7; stroke:none;" d="M153 155L154 156L153 155z"/>
<path style="fill:#93a8bd; stroke:none;" d="M159 155L159 158L160 158L159 155z"/>
<path style="fill:#e0d4c7; stroke:none;" d="M161.333 155.667L161.667 156.333L161.333 155.667z"/>
<path style="fill:#93a8bd; stroke:none;" d="M178 155L179 156L178 155M184 155L183 157L184 155M187 155L188 156L187 155z"/>
<path style="fill:#e0d4c7; stroke:none;" d="M193 155L194 156L193 155z"/>
<path style="fill:#010101; stroke:none;" d="M222 157L222 158C226.204 160.24 229.546 160.526 233 157C228.824 155.241 226.065 154.865 222 157z"/>
<path style="fill:#e0d4c7; stroke:none;" d="M82 156L82 157L89 158L89 157L82 156M89.6667 156.333L90.3333 156.667L89.6667 156.333z"/>
<path style="fill:#93a8bd; stroke:none;" d="M123 156L124 157L123 156M129.333 156.667L129.667 157.333L129.333 156.667z"/>
<path style="fill:#010101; stroke:none;" d="M130 156L131 157L130 156z"/>
<path style="fill:#93a8bd; stroke:none;" d="M138 156L139 157L138 156M177 156L178 157L177 156z"/>
<path style="fill:#e0d4c7; stroke:none;" d="M184 156L185 157L184 156M186 156L187 157L186 156z"/>
<path style="fill:#93a8bd; stroke:none;" d="M192 156L193 157L192 156z"/>
<path style="fill:#e0d4c7; stroke:none;" d="M123 157L124 158L123 157M132 157L133 158L132 157z"/>
<path style="fill:#93a8bd; stroke:none;" d="M139 157L140 158L139 157M154 157L155 158L154 157M161 157L160 161L161 157z"/>
<path style="fill:#e0d4c7; stroke:none;" d="M167.333 157.667L167.667 158.333L167.333 157.667M176 157L175 159L176 157M183 157L184 158L183 157z"/>
<path style="fill:#93a8bd; stroke:none;" d="M186 157L185 161L186 161L186 157z"/>
<path style="fill:#e0d4c7; stroke:none;" d="M192 157L193 158L192 157M94.0046 158.573C89.1226 160 86.0731 165.637 91.1481 169.062C94.9889 171.654 101.738 171.55 105.996 170.196C110.943 168.622 114.819 162.862 108.866 159.573C104.951 157.409 98.2312 157.337 94.0046 158.573z"/>
<path style="fill:#93a8bd; stroke:none;" d="M124 158L125 159L124 158M130.333 158.667L130.667 159.333L130.333 158.667M133 158L134 159L133 158z"/>
<path style="fill:#e0d4c7; stroke:none;" d="M140 158L141 159L140 158M148.333 158.667L148.667 159.333L148.333 158.667M154.333 158.667L154.667 159.333L154.333 158.667M160.333 158.667L160.667 159.333L160.333 158.667z"/>
<path style="fill:#93a8bd; stroke:none;" d="M176 158L177 159L176 158M182 158L181 160L182 158z"/>
<path style="fill:#e0d4c7; stroke:none;" d="M185 158L186 159L185 158z"/>
<path style="fill:#93a8bd; stroke:none;" d="M191 158L192 159L191 158z"/>
<path style="fill:#ea922c; stroke:none;" d="M94.044 159.653C89.2425 161.259 88.3675 166.168 93.0594 168.682C96.8488 170.712 103.063 170.486 106.955 168.852C119.118 163.743 100.475 157.501 94.044 159.653z"/>
<path style="fill:#e0d4c7; stroke:none;" d="M124 159L125 160L124 159M131.333 159.667L131.667 160.333L131.333 159.667z"/>
<path style="fill:#93a8bd; stroke:none;" d="M134 159L136 161L134 159M140 159L141 160L140 159z"/>
<path style="fill:#e0d4c7; stroke:none;" d="M142 159L142 162L143 162L142 159z"/>
<path style="fill:#93a8bd; stroke:none;" d="M175 159L176 160L175 159z"/>
<path style="fill:#e0d4c7; stroke:none;" d="M182 159L183 160L182 159M191 159L190 163L191 163L191 159z"/>
<path style="fill:#93a8bd; stroke:none;" d="M125 160L127 166L128 166L125 160z"/>
<path style="fill:#e0d4c7; stroke:none;" d="M134 160L135 161L134 160z"/>
<path style="fill:#93a8bd; stroke:none;" d="M141.333 160.667L141.667 161.333L141.333 160.667M148 160L148 166L149 166L148 160z"/>
<path style="fill:#e0d4c7; stroke:none;" d="M174 160L175 161L174 160M181 160L182 161L181 160z"/>
<path style="fill:#93a8bd; stroke:none;" d="M190 160L191 161L190 160z"/>
<path style="fill:#e0d4c7; stroke:none;" d="M46 161.519C39.0217 162.976 30.0604 170.119 39.0586 176.258C43.6779 179.41 50.8156 179.168 56 177.981C74.1273 173.834 58.714 158.862 46 161.519M125 161L126 162L125 161z"/>
<path style="fill:#93a8bd; stroke:none;" d="M131 161L132 165L133 165L131 161z"/>
<path style="fill:#e0d4c7; stroke:none;" d="M135 161L136 162L135 161z"/>
<path style="fill:#93a8bd; stroke:none;" d="M143 161L144 164L143 161M155.333 161.667L155.667 162.333L155.333 161.667z"/>
<path style="fill:#e0d4c7; stroke:none;" d="M166.333 161.667L166.667 162.333L166.333 161.667z"/>
<path style="fill:#93a8bd; stroke:none;" d="M174 161L175 162L174 161M180 161L179 164L180 164L180 161z"/>
<path style="fill:#e0d4c7; stroke:none;" d="M184 161L185 162L184 161z"/>
<path style="fill:#ea922c; stroke:none;" d="M49 162.598C32.3033 163.381 35.8327 178.534 51 177.621C68.1092 176.591 64.7037 161.862 49 162.598z"/>
<path style="fill:#e0d4c7; stroke:none;" d="M93 164C96.9949 166.729 104.143 167.408 107 163L93 164M132 162L133 163L132 162z"/>
<path style="fill:#93a8bd; stroke:none;" d="M136 162L137 163L136 162z"/>
<path style="fill:#e0d4c7; stroke:none;" d="M173 162L174 163L173 162M180 162L181 163L180 162z"/>
<path style="fill:#93a8bd; stroke:none;" d="M184.333 162.667L184.667 163.333L184.333 162.667z"/>
<path style="fill:#e0d4c7; stroke:none;" d="M136 163L137 164L136 163M155.333 163.667L155.667 164.333L155.333 163.667z"/>
<path style="fill:#93a8bd; stroke:none;" d="M173 163L174 164L173 163z"/>
<path style="fill:#e0d4c7; stroke:none;" d="M183.333 163.667L183.667 164.333L183.333 163.667z"/>
<path style="fill:#93a8bd; stroke:none;" d="M189 163L190 164L189 163z"/>
<path style="fill:#010101; stroke:none;" d="M95 164L95 165L104 165L95 164z"/>
<path style="fill:#e0d4c7; stroke:none;" d="M126 164L127 165L126 164M133.333 164.667L133.667 165.333L133.333 164.667M137 164L138 165L137 164M172 164L173 165L172 164z"/>
<path style="fill:#93a8bd; stroke:none;" d="M178 164L179 165L178 164z"/>
<path style="fill:#e0d4c7; stroke:none;" d="M189.333 164.667L189.667 165.333L189.333 164.667M75.0586 165.758C70.0555 167.688 70.5708 173.97 72.4174 177.999C75.4098 184.528 85.9778 194.516 93.8665 191.106C106.166 185.788 85.3113 161.801 75.0586 165.758z"/>
<path style="fill:#93a8bd; stroke:none;" d="M138 165L139 166L138 165z"/>
<path style="fill:#e0d4c7; stroke:none;" d="M149 165L149 168L150 168L149 165z"/>
<path style="fill:#93a8bd; stroke:none;" d="M156 165L156 168L157 168L156 165M172 165L173 166L172 165z"/>
<path style="fill:#e0d4c7; stroke:none;" d="M178 165L179 166L178 165z"/>
<path style="fill:#93a8bd; stroke:none;" d="M183.333 165.667L183.667 166.333L183.333 165.667z"/>
<path style="fill:#e0d4c7; stroke:none;" d="M40 169C42.4314 173.452 56.2386 177.668 58.6543 170.779C60.3857 165.842 49.4839 165.907 47.0015 166.329C44.4387 166.764 42.2728 167.809 40 169z"/>
<path style="fill:#ea922c; stroke:none;" d="M75.1481 167.043C64.5778 172.932 84.5498 195.746 93.6821 189.817C103.276 183.588 83.9011 162.167 75.1481 167.043z"/>
<path style="fill:#e0d4c7; stroke:none;" d="M127.333 166.667L127.667 167.333L127.333 166.667z"/>
<path style="fill:#93a8bd; stroke:none;" d="M133.333 166.667L133.667 167.333L133.333 166.667z"/>
<path style="fill:#e0d4c7; stroke:none;" d="M138 166L139 167L138 166M165.333 166.667L165.667 167.333L165.333 166.667M171 166L172 167L171 166z"/>
<path style="fill:#93a8bd; stroke:none;" d="M177 166L178 167L177 166M188 166L189 167L188 166z"/>
<path style="fill:#010101; stroke:none;" d="M41 169C45.856 174.101 54.144 174.101 59 169L41 169z"/>
<path style="fill:#93a8bd; stroke:none;" d="M128.333 167.667L128.667 168.333L128.333 167.667z"/>
<path style="fill:#e0d4c7; stroke:none;" d="M134 167L134 170L135 170L134 167z"/>
<path style="fill:#93a8bd; stroke:none;" d="M139 167L140 168L139 167M164 167L164 173L165 173L164 167M171.333 167.667L171.667 168.333L171.333 167.667z"/>
<path style="fill:#e0d4c7; stroke:none;" d="M177 167L178 168L177 167M182 167L183 168L182 167M188 167L188 170L189 170L188 167M139 168L140 172L141 172L139 168z"/>
<path style="fill:#93a8bd; stroke:none;" d="M149 168L149 176L150 176L149 168z"/>
<path style="fill:#e0d4c7; stroke:none;" d="M156 168L156 173L157 173L156 168z"/>
<path style="fill:#93a8bd; stroke:none;" d="M176 168L177 169L176 168M182 168L182 171L183 171L182 168z"/>
<path style="fill:#e0d4c7; stroke:none;" d="M128.333 169.667L128.667 170.333L128.333 169.667z"/>
<path style="fill:#93a8bd; stroke:none;" d="M140 169L141 170L140 169z"/>
<path style="fill:#e0d4c7; stroke:none;" d="M170 169L171 170L170 169M176 169L177 170L176 169z"/>
<path style="fill:#93a8bd; stroke:none;" d="M187.333 169.667L187.667 170.333L187.333 169.667z"/>
<path style="fill:#e0d4c7; stroke:none;" d="M76 170C76.3782 176.909 80.5243 181.14 86 185L77 171C83.9223 174.294 88.4251 179.318 92 186L87 185L87 186L93 187C91.608 178.199 84.715 171.573 76 170z"/>
<path style="fill:#93a8bd; stroke:none;" d="M129 170L129 173L130 173L129 170M134.333 170.667L134.667 171.333L134.333 170.667M170 170L171 171L170 170z"/>
<path style="fill:#e0d4c7; stroke:none;" d="M181.333 170.667L181.667 171.333L181.333 170.667z"/>
<path style="fill:#010101; stroke:none;" d="M77 171C78.0395 178.777 84.3387 184.783 92 186C89.352 178.923 84.2926 173.329 77 171z"/>
<path style="fill:#e0d4c7; stroke:none;" d="M135 171L135 174L136 174L135 171z"/>
<path style="fill:#93a8bd; stroke:none;" d="M141.333 171.667L141.667 172.333L141.333 171.667M157 171L157 175L158 175L157 171z"/>
<path style="fill:#e0d4c7; stroke:none;" d="M169 171L170 172L169 171z"/>
<path style="fill:#93a8bd; stroke:none;" d="M175 171L176 172L175 171z"/>
<path style="fill:#e0d4c7; stroke:none;" d="M187 171L187 174L188 174L187 171z"/>
<path style="fill:#93a8bd; stroke:none;" d="M169.333 172.667L169.667 173.333L169.333 172.667z"/>
<path style="fill:#e0d4c7; stroke:none;" d="M175 172L176 173L175 172z"/>
<path style="fill:#93a8bd; stroke:none;" d="M181 172L181 176L182 176L181 172z"/>
<path style="fill:#e0d4c7; stroke:none;" d="M129.333 173.667L129.667 174.333L129.333 173.667M141.333 173.667L141.667 174.333L141.333 173.667M150 173L150 180L151 180L150 173M164 173L164 176L165 176L164 173z"/>
<path style="fill:#93a8bd; stroke:none;" d="M174.333 173.667L174.667 174.333L174.333 173.667M186 173L186 176L187 176L186 173M130 174L130 178L131 178L130 174M135 174L135 177L136 177L135 174M142.333 174.667L142.667 175.333L142.333 174.667z"/>
<path style="fill:#e0d4c7; stroke:none;" d="M168.333 174.667L168.667 175.333L168.333 174.667M157 175L157 183L158 183L157 175M174 175L175 176L174 175M180.333 175.667L180.667 176.333L180.333 175.667M136 176L136 180L137 180L136 176M142.333 176.667L142.667 177.333L142.333 176.667z"/>
<path style="fill:#93a8bd; stroke:none;" d="M163 176L163 196L164 196L163 176M168.333 176.667L168.667 177.333L168.333 176.667M173.333 176.667L173.667 177.333L173.333 176.667z"/>
<path style="fill:#e0d4c7; stroke:none;" d="M186 176L186 179L187 179L186 176z"/>
<path style="fill:#93a8bd; stroke:none;" d="M143 177L143 180L144 180L143 177M180 177L180 183L181 183L180 177M185 177L185 184L186 184L185 177z"/>
<path style="fill:#e0d4c7; stroke:none;" d="M130.333 178.667L130.667 179.333L130.333 178.667M167 178L168 179L167 178M173 178L173 181L174 181L173 178z"/>
<path style="fill:#93a8bd; stroke:none;" d="M131 179L131 185L132 185L131 179M167 179L167 183L168 183L167 179z"/>
<path style="fill:#e0d4c7; stroke:none;" d="M65.9961 180.641C59.4543 181.48 52.4628 188.288 49.7685 194C47.4361 198.945 48.1384 205.437 55.0039 204.627C62.4032 203.753 69.1181 196.633 71.7685 190C73.5829 185.459 71.704 179.909 65.9961 180.641z"/>
<path style="fill:#93a8bd; stroke:none;" d="M136 180L136 184L137 184L136 180z"/>
<path style="fill:#e0d4c7; stroke:none;" d="M143.333 180.667L143.667 181.333L143.333 180.667z"/>
<path style="fill:#93a8bd; stroke:none;" d="M150 180L149 196L147 196L146 186L145 186C145.013 203.076 154.411 190.512 150 180M158 180L158 187L159 187L158 180M172.333 180.667L172.667 181.333L172.333 180.667z"/>
<path style="fill:#ea922c; stroke:none;" d="M65.9846 181.722C59.774 182.391 53.0705 189.645 50.5725 195C48.6623 199.095 49.4516 204.202 55.0046 203.601C61.3032 202.92 67.6438 196.388 70.311 191C72.3391 186.903 71.8869 181.087 65.9846 181.722z"/>
<path style="fill:#93a8bd; stroke:none;" d="M144 181L144 185L145 185L144 181z"/>
<path style="fill:#e0d4c7; stroke:none;" d="M179 181L179 186L180 186L179 181M172 182L172 187L173 187L172 182M137 183L136 197L137 197L137 183M166.333 183.667L166.667 184.333L166.333 183.667M185 184L185 190L186 190L185 184M53 200C60.7087 198.604 66.514 192.68 68 185C60.6867 187.172 55.1722 192.687 53 200M131 185L131 189L132 189L131 185M144 185L144 189L145 189L144 185z"/>
<path style="fill:#93a8bd; stroke:none;" d="M166 185C166.001 189.623 164.936 196.098 171 196L171 195L168 196L166 185z"/>
<path style="fill:#010101; stroke:none;" d="M66 186L67 187L66 186z"/>
<path style="fill:#93a8bd; stroke:none;" d="M171 186L171 194L172 194L171 186M179 186C179.009 197.386 184.991 197.386 185 186L184 186L183 196L181 196L179 186z"/>
<path style="fill:#010101; stroke:none;" d="M64 187L54 199C58.4835 197.476 66.8924 192.371 64 187z"/>
<path style="fill:#e0d4c7; stroke:none;" d="M158 187L159 197L160 197L158 187z"/>
<path style="fill:#93a8bd; stroke:none;" d="M132 191L132 196L133 196L132 191z"/>
<path style="fill:#e0d4c7; stroke:none;" d="M164.333 192.667L164.667 193.333L164.333 192.667M171.333 194.667L171.667 195.333L171.333 194.667z"/>
<path style="fill:#93a8bd; stroke:none;" d="M136 195L137 196L136 195z"/>
<path style="fill:#e0d4c7; stroke:none;" d="M145 195L146 196L145 195M150 195L151 196L150 195z"/>
<path style="fill:#93a8bd; stroke:none;" d="M159 195L160 196L159 195z"/>
<path style="fill:#e0d4c7; stroke:none;" d="M166 195L167 196L166 195M179 195L180 196L179 195M184 195L185 196L184 195M133 196L134 197L133 196z"/>
<path style="fill:#93a8bd; stroke:none;" d="M134.667 196.333L135.333 196.667L134.667 196.333z"/>
<path style="fill:#e0d4c7; stroke:none;" d="M146 196L147 197L146 196M149 196L150 197L149 196z"/>
<path style="fill:#93a8bd; stroke:none;" d="M160.667 196.333L161.333 196.667L160.667 196.333z"/>
<path style="fill:#e0d4c7; stroke:none;" d="M162.667 196.333L163.333 196.667L162.667 196.333M167 196L168 197L167 196M170 196L171 197L170 196M180 196L181 197L180 196M183 196L184 197L183 196z"/>
</svg>
